<svg xmlns="http://www.w3.org/2000/svg" width="24" height="24" viewBox="0 0 24 24">
  <!-- dashed outline of an object, as in Krita's selection tool icons -->
  <path d="M5.2 10.1c.9-3.1 4.3-4.6 7.2-3.6 1.8.6 2.3 2.2 3.9 2.9 2.1.9 3.1 3.4 2 5.5-1.2 2.3-4 2.6-6.3 3.3-2.5.8-5.1 1.6-7-.2-1.9-1.8-1.5-4.6-.3-6.4.3-.5.4-1 .5-1.5z"
        fill="none" stroke="#d4d4d4" stroke-width="1.6" stroke-linecap="round" stroke-dasharray="2.1 2"/>
  <!-- click point -->
  <circle cx="11.3" cy="12.9" r="1.7" fill="#d4d4d4"/>
  <!-- sparkle -->
  <path d="M18.6 1.5l1 2.7 2.7 1-2.7 1-1 2.7-1-2.7-2.7-1 2.7-1z" fill="#d4d4d4"/>
</svg>
